<mxfile host="app.diagrams.net" modified="2022-12-02T13:12:32.261Z" agent="5.0 (X11; Ubuntu)" etag="QaOwuG2w1j35WBcOm4rS" version="20.6.0" type="github">
  <diagram id="4P2TpbgXzhP-4KFeG8Nv" name="Page-1">
    <mxGraphModel dx="2585" dy="1203" grid="1" gridSize="10" guides="1" tooltips="1" connect="1" arrows="1" fold="1" page="1" pageScale="1" pageWidth="827" pageHeight="1169" math="0" shadow="0">
      <root>
        <mxCell id="0" />
        <mxCell id="1" parent="0" />
        <mxCell id="2" value="Feature-diagramm" style="text;html=1;resizable=0;autosize=1;align=center;verticalAlign=middle;points=[];fillColor=none;strokeColor=none;rounded=0;" parent="1" vertex="1">
          <mxGeometry x="300" y="30" width="120" height="30" as="geometry" />
        </mxCell>
        <mxCell id="oijMVtfoC-c7ZMny98bf-4" value="" style="group" parent="1" vertex="1" connectable="0">
          <mxGeometry x="150" y="330" width="120" height="80" as="geometry" />
        </mxCell>
        <mxCell id="oijMVtfoC-c7ZMny98bf-2" value="" style="ellipse;whiteSpace=wrap;html=1;" parent="oijMVtfoC-c7ZMny98bf-4" vertex="1">
          <mxGeometry width="120" height="80" as="geometry" />
        </mxCell>
        <mxCell id="oijMVtfoC-c7ZMny98bf-3" value="einloggen" style="text;html=1;strokeColor=none;fillColor=none;align=center;verticalAlign=middle;whiteSpace=wrap;rounded=0;" parent="oijMVtfoC-c7ZMny98bf-4" vertex="1">
          <mxGeometry x="30" y="20" width="60" height="30" as="geometry" />
        </mxCell>
        <mxCell id="oijMVtfoC-c7ZMny98bf-88" style="edgeStyle=orthogonalEdgeStyle;rounded=0;orthogonalLoop=1;jettySize=auto;html=1;exitX=0.75;exitY=0.1;exitDx=0;exitDy=0;exitPerimeter=0;entryX=0;entryY=0.5;entryDx=0;entryDy=0;" parent="1" source="oijMVtfoC-c7ZMny98bf-5" target="oijMVtfoC-c7ZMny98bf-79" edge="1">
          <mxGeometry relative="1" as="geometry" />
        </mxCell>
        <mxCell id="oijMVtfoC-c7ZMny98bf-89" style="edgeStyle=orthogonalEdgeStyle;rounded=0;orthogonalLoop=1;jettySize=auto;html=1;exitX=0.5;exitY=0.5;exitDx=0;exitDy=0;exitPerimeter=0;entryX=0;entryY=0.5;entryDx=0;entryDy=0;" parent="1" source="oijMVtfoC-c7ZMny98bf-5" target="oijMVtfoC-c7ZMny98bf-82" edge="1">
          <mxGeometry relative="1" as="geometry">
            <Array as="points">
              <mxPoint x="95" y="900" />
              <mxPoint x="257" y="900" />
              <mxPoint x="257" y="930" />
            </Array>
          </mxGeometry>
        </mxCell>
        <mxCell id="bDuGjaqNq2e8TzomaUQW-6" style="edgeStyle=orthogonalEdgeStyle;rounded=0;orthogonalLoop=1;jettySize=auto;html=1;" parent="1" source="oijMVtfoC-c7ZMny98bf-5" target="bDuGjaqNq2e8TzomaUQW-3" edge="1">
          <mxGeometry relative="1" as="geometry">
            <Array as="points">
              <mxPoint x="390" y="830" />
              <mxPoint x="390" y="830" />
            </Array>
          </mxGeometry>
        </mxCell>
        <mxCell id="oijMVtfoC-c7ZMny98bf-5" value="Besucher" style="shape=umlActor;verticalLabelPosition=bottom;verticalAlign=top;html=1;outlineConnect=0;" parent="1" vertex="1">
          <mxGeometry x="80" y="770" width="30" height="60" as="geometry" />
        </mxCell>
        <mxCell id="oijMVtfoC-c7ZMny98bf-15" style="edgeStyle=orthogonalEdgeStyle;rounded=0;orthogonalLoop=1;jettySize=auto;html=1;entryX=0;entryY=0.5;entryDx=0;entryDy=0;" parent="1" source="oijMVtfoC-c7ZMny98bf-10" target="oijMVtfoC-c7ZMny98bf-2" edge="1">
          <mxGeometry relative="1" as="geometry" />
        </mxCell>
        <mxCell id="oijMVtfoC-c7ZMny98bf-10" value="Handwerker" style="shape=umlActor;verticalLabelPosition=bottom;verticalAlign=top;html=1;outlineConnect=0;" parent="1" vertex="1">
          <mxGeometry x="60" y="340" width="30" height="60" as="geometry" />
        </mxCell>
        <mxCell id="oijMVtfoC-c7ZMny98bf-25" style="edgeStyle=orthogonalEdgeStyle;rounded=0;orthogonalLoop=1;jettySize=auto;html=1;exitX=1;exitY=0.3333333333333333;exitDx=0;exitDy=0;exitPerimeter=0;entryX=0;entryY=0.5;entryDx=0;entryDy=0;" parent="1" source="oijMVtfoC-c7ZMny98bf-12" target="oijMVtfoC-c7ZMny98bf-19" edge="1">
          <mxGeometry relative="1" as="geometry" />
        </mxCell>
        <mxCell id="oijMVtfoC-c7ZMny98bf-12" value="Administrator" style="shape=umlActor;verticalLabelPosition=bottom;verticalAlign=top;html=1;outlineConnect=0;" parent="1" vertex="1">
          <mxGeometry x="97" y="145" width="30" height="60" as="geometry" />
        </mxCell>
        <mxCell id="oijMVtfoC-c7ZMny98bf-18" value="" style="group" parent="1" vertex="1" connectable="0">
          <mxGeometry x="197" y="125" width="120" height="80" as="geometry" />
        </mxCell>
        <mxCell id="oijMVtfoC-c7ZMny98bf-19" value="" style="ellipse;whiteSpace=wrap;html=1;" parent="oijMVtfoC-c7ZMny98bf-18" vertex="1">
          <mxGeometry width="120" height="80" as="geometry" />
        </mxCell>
        <mxCell id="oijMVtfoC-c7ZMny98bf-20" value="einloggen" style="text;html=1;strokeColor=none;fillColor=none;align=center;verticalAlign=middle;whiteSpace=wrap;rounded=0;" parent="oijMVtfoC-c7ZMny98bf-18" vertex="1">
          <mxGeometry x="30" y="20" width="60" height="30" as="geometry" />
        </mxCell>
        <mxCell id="oijMVtfoC-c7ZMny98bf-29" value="" style="group" parent="1" vertex="1" connectable="0">
          <mxGeometry x="421" y="120" width="250" height="100" as="geometry" />
        </mxCell>
        <mxCell id="oijMVtfoC-c7ZMny98bf-30" value="" style="ellipse;whiteSpace=wrap;html=1;" parent="oijMVtfoC-c7ZMny98bf-29" vertex="1">
          <mxGeometry width="250.00000000000003" height="100" as="geometry" />
        </mxCell>
        <mxCell id="oijMVtfoC-c7ZMny98bf-31" value="Handwerker verwalten" style="text;html=1;strokeColor=none;fillColor=none;align=center;verticalAlign=middle;whiteSpace=wrap;rounded=0;" parent="oijMVtfoC-c7ZMny98bf-29" vertex="1">
          <mxGeometry x="62.50000000000001" y="25" width="125.00000000000001" height="37.5" as="geometry" />
        </mxCell>
        <mxCell id="oijMVtfoC-c7ZMny98bf-34" style="edgeStyle=orthogonalEdgeStyle;rounded=0;orthogonalLoop=1;jettySize=auto;html=1;exitX=1;exitY=0.5;exitDx=0;exitDy=0;" parent="1" source="oijMVtfoC-c7ZMny98bf-19" edge="1">
          <mxGeometry relative="1" as="geometry">
            <mxPoint x="427" y="165.76923076923072" as="targetPoint" />
          </mxGeometry>
        </mxCell>
        <mxCell id="oijMVtfoC-c7ZMny98bf-36" value="" style="group" parent="1" vertex="1" connectable="0">
          <mxGeometry x="324" y="370" width="120" height="80" as="geometry" />
        </mxCell>
        <mxCell id="oijMVtfoC-c7ZMny98bf-37" value="" style="ellipse;whiteSpace=wrap;html=1;" parent="oijMVtfoC-c7ZMny98bf-36" vertex="1">
          <mxGeometry width="120" height="80" as="geometry" />
        </mxCell>
        <mxCell id="oijMVtfoC-c7ZMny98bf-38" value="Raum vermessen" style="text;html=1;strokeColor=none;fillColor=none;align=center;verticalAlign=middle;whiteSpace=wrap;rounded=0;" parent="oijMVtfoC-c7ZMny98bf-36" vertex="1">
          <mxGeometry x="30" y="20" width="60" height="30" as="geometry" />
        </mxCell>
        <mxCell id="oijMVtfoC-c7ZMny98bf-78" value="" style="group" parent="1" vertex="1" connectable="0">
          <mxGeometry x="200" y="700" width="130" height="100" as="geometry" />
        </mxCell>
        <mxCell id="oijMVtfoC-c7ZMny98bf-79" value="" style="ellipse;whiteSpace=wrap;html=1;" parent="oijMVtfoC-c7ZMny98bf-78" vertex="1">
          <mxGeometry width="130" height="100" as="geometry" />
        </mxCell>
        <mxCell id="oijMVtfoC-c7ZMny98bf-80" value="Vorstellung lesen" style="text;html=1;strokeColor=none;fillColor=none;align=center;verticalAlign=middle;whiteSpace=wrap;rounded=0;" parent="oijMVtfoC-c7ZMny98bf-78" vertex="1">
          <mxGeometry x="32.5" y="25" width="65" height="37.5" as="geometry" />
        </mxCell>
        <mxCell id="oijMVtfoC-c7ZMny98bf-81" value="" style="group" parent="1" vertex="1" connectable="0">
          <mxGeometry x="404" y="890" width="120" height="80" as="geometry" />
        </mxCell>
        <mxCell id="oijMVtfoC-c7ZMny98bf-82" value="" style="ellipse;whiteSpace=wrap;html=1;" parent="oijMVtfoC-c7ZMny98bf-81" vertex="1">
          <mxGeometry width="120" height="80" as="geometry" />
        </mxCell>
        <mxCell id="oijMVtfoC-c7ZMny98bf-83" value="einloggen" style="text;html=1;strokeColor=none;fillColor=none;align=center;verticalAlign=middle;whiteSpace=wrap;rounded=0;" parent="oijMVtfoC-c7ZMny98bf-81" vertex="1">
          <mxGeometry x="30" y="20" width="60" height="30" as="geometry" />
        </mxCell>
        <mxCell id="oijMVtfoC-c7ZMny98bf-90" style="edgeStyle=orthogonalEdgeStyle;rounded=0;orthogonalLoop=1;jettySize=auto;html=1;exitX=1;exitY=0.5;exitDx=0;exitDy=0;entryX=0;entryY=0.5;entryDx=0;entryDy=0;" parent="1" source="oijMVtfoC-c7ZMny98bf-2" target="oijMVtfoC-c7ZMny98bf-37" edge="1">
          <mxGeometry relative="1" as="geometry" />
        </mxCell>
        <mxCell id="bDuGjaqNq2e8TzomaUQW-3" value="" style="ellipse;whiteSpace=wrap;html=1;" parent="1" vertex="1">
          <mxGeometry x="420" y="780" width="120" height="80" as="geometry" />
        </mxCell>
        <mxCell id="bDuGjaqNq2e8TzomaUQW-4" value="anmelden" style="text;html=1;strokeColor=none;fillColor=none;align=center;verticalAlign=middle;whiteSpace=wrap;rounded=0;" parent="1" vertex="1">
          <mxGeometry x="450" y="805" width="60" height="30" as="geometry" />
        </mxCell>
        <mxCell id="5JFhxHoKSF3lhBzCipbz-2" value="" style="group" parent="1" vertex="1" connectable="0">
          <mxGeometry x="290" y="480" width="120" height="80" as="geometry" />
        </mxCell>
        <mxCell id="5JFhxHoKSF3lhBzCipbz-3" value="" style="ellipse;whiteSpace=wrap;html=1;" parent="5JFhxHoKSF3lhBzCipbz-2" vertex="1">
          <mxGeometry width="120" height="80" as="geometry" />
        </mxCell>
        <mxCell id="5JFhxHoKSF3lhBzCipbz-4" value="Vermessung speichern" style="text;html=1;strokeColor=none;fillColor=none;align=center;verticalAlign=middle;whiteSpace=wrap;rounded=0;" parent="5JFhxHoKSF3lhBzCipbz-2" vertex="1">
          <mxGeometry x="30" y="20" width="60" height="30" as="geometry" />
        </mxCell>
        <mxCell id="5JFhxHoKSF3lhBzCipbz-6" style="edgeStyle=orthogonalEdgeStyle;rounded=0;orthogonalLoop=1;jettySize=auto;html=1;exitX=0.5;exitY=1;exitDx=0;exitDy=0;entryX=0;entryY=0.375;entryDx=0;entryDy=0;entryPerimeter=0;" parent="1" source="oijMVtfoC-c7ZMny98bf-2" target="5JFhxHoKSF3lhBzCipbz-3" edge="1">
          <mxGeometry relative="1" as="geometry" />
        </mxCell>
        <mxCell id="5JFhxHoKSF3lhBzCipbz-7" value="" style="group" parent="1" vertex="1" connectable="0">
          <mxGeometry x="160" y="560" width="120" height="80" as="geometry" />
        </mxCell>
        <mxCell id="5JFhxHoKSF3lhBzCipbz-8" value="" style="ellipse;whiteSpace=wrap;html=1;" parent="5JFhxHoKSF3lhBzCipbz-7" vertex="1">
          <mxGeometry width="120" height="80" as="geometry" />
        </mxCell>
        <mxCell id="5JFhxHoKSF3lhBzCipbz-9" value="Vermessung ansehen" style="text;html=1;strokeColor=none;fillColor=none;align=center;verticalAlign=middle;whiteSpace=wrap;rounded=0;" parent="5JFhxHoKSF3lhBzCipbz-7" vertex="1">
          <mxGeometry x="30" y="20" width="60" height="30" as="geometry" />
        </mxCell>
        <mxCell id="5JFhxHoKSF3lhBzCipbz-10" style="edgeStyle=orthogonalEdgeStyle;rounded=0;orthogonalLoop=1;jettySize=auto;html=1;exitX=0;exitY=1;exitDx=0;exitDy=0;" parent="1" source="oijMVtfoC-c7ZMny98bf-2" edge="1">
          <mxGeometry relative="1" as="geometry">
            <mxPoint x="180" y="570" as="targetPoint" />
          </mxGeometry>
        </mxCell>
        <mxCell id="rVr1unRsq8ttgl6cSNUC-3" value="" style="group" vertex="1" connectable="0" parent="1">
          <mxGeometry x="530" y="350" width="120" height="70" as="geometry" />
        </mxCell>
        <mxCell id="rVr1unRsq8ttgl6cSNUC-4" value="" style="ellipse;whiteSpace=wrap;html=1;" vertex="1" parent="rVr1unRsq8ttgl6cSNUC-3">
          <mxGeometry width="120" height="70" as="geometry" />
        </mxCell>
        <mxCell id="rVr1unRsq8ttgl6cSNUC-5" value="Preisangebot senden" style="text;html=1;strokeColor=none;fillColor=none;align=center;verticalAlign=middle;whiteSpace=wrap;rounded=0;" vertex="1" parent="rVr1unRsq8ttgl6cSNUC-3">
          <mxGeometry x="30" y="17.5" width="60" height="26.25" as="geometry" />
        </mxCell>
        <mxCell id="rVr1unRsq8ttgl6cSNUC-6" value="" style="group" vertex="1" connectable="0" parent="1">
          <mxGeometry x="530" y="470" width="120" height="70" as="geometry" />
        </mxCell>
        <mxCell id="rVr1unRsq8ttgl6cSNUC-7" value="" style="ellipse;whiteSpace=wrap;html=1;" vertex="1" parent="rVr1unRsq8ttgl6cSNUC-6">
          <mxGeometry width="120" height="70" as="geometry" />
        </mxCell>
        <mxCell id="rVr1unRsq8ttgl6cSNUC-8" value="Foto speichern" style="text;html=1;strokeColor=none;fillColor=none;align=center;verticalAlign=middle;whiteSpace=wrap;rounded=0;" vertex="1" parent="rVr1unRsq8ttgl6cSNUC-6">
          <mxGeometry x="30" y="17.5" width="60" height="26.25" as="geometry" />
        </mxCell>
        <mxCell id="rVr1unRsq8ttgl6cSNUC-9" value="" style="group" vertex="1" connectable="0" parent="1">
          <mxGeometry x="470" y="560" width="120" height="70" as="geometry" />
        </mxCell>
        <mxCell id="rVr1unRsq8ttgl6cSNUC-10" value="" style="ellipse;whiteSpace=wrap;html=1;" vertex="1" parent="rVr1unRsq8ttgl6cSNUC-9">
          <mxGeometry width="120" height="70" as="geometry" />
        </mxCell>
        <mxCell id="rVr1unRsq8ttgl6cSNUC-11" value="Lieferanten verwalten" style="text;html=1;strokeColor=none;fillColor=none;align=center;verticalAlign=middle;whiteSpace=wrap;rounded=0;" vertex="1" parent="rVr1unRsq8ttgl6cSNUC-9">
          <mxGeometry x="30" y="20" width="60" height="23.75" as="geometry" />
        </mxCell>
        <mxCell id="rVr1unRsq8ttgl6cSNUC-14" style="edgeStyle=orthogonalEdgeStyle;rounded=0;orthogonalLoop=1;jettySize=auto;html=1;exitX=1;exitY=0.5;exitDx=0;exitDy=0;" edge="1" parent="1" source="oijMVtfoC-c7ZMny98bf-37" target="rVr1unRsq8ttgl6cSNUC-7">
          <mxGeometry relative="1" as="geometry">
            <Array as="points">
              <mxPoint x="470" y="410" />
              <mxPoint x="470" y="460" />
              <mxPoint x="590" y="460" />
            </Array>
          </mxGeometry>
        </mxCell>
        <mxCell id="rVr1unRsq8ttgl6cSNUC-15" style="edgeStyle=orthogonalEdgeStyle;rounded=0;orthogonalLoop=1;jettySize=auto;html=1;exitX=1;exitY=1;exitDx=0;exitDy=0;" edge="1" parent="1" source="oijMVtfoC-c7ZMny98bf-2" target="rVr1unRsq8ttgl6cSNUC-10">
          <mxGeometry relative="1" as="geometry">
            <Array as="points">
              <mxPoint x="252" y="470" />
              <mxPoint x="490" y="470" />
            </Array>
          </mxGeometry>
        </mxCell>
        <mxCell id="rVr1unRsq8ttgl6cSNUC-17" style="edgeStyle=orthogonalEdgeStyle;rounded=0;orthogonalLoop=1;jettySize=auto;html=1;exitX=0.5;exitY=0;exitDx=0;exitDy=0;" edge="1" parent="1" source="oijMVtfoC-c7ZMny98bf-37" target="rVr1unRsq8ttgl6cSNUC-4">
          <mxGeometry relative="1" as="geometry" />
        </mxCell>
      </root>
    </mxGraphModel>
  </diagram>
</mxfile>
